<svg width="44" height="44" viewBox="0 0 44 44" fill="none" xmlns="http://www.w3.org/2000/svg">
<path d="M3.4375 17.434C3.4375 20.9993 5.24457 24.1517 8.01196 26.0637L19.8145 36.3612C21.2165 37.5845 23.3113 37.5682 24.6942 36.3232L36.564 25.637C39.0035 23.701 40.5626 20.7456 40.5626 17.434C40.5626 11.6024 35.7279 6.875 29.7638 6.875C26.7162 6.875 23.9634 8.10939 22 10.0948C20.0366 8.10939 17.2838 6.875 14.2363 6.875C8.2723 6.875 3.4375 11.6024 3.4375 17.434Z" fill="#FF4B4B" stroke="white" stroke-width="2"/>
<path opacity="0.3" fill-rule="evenodd" clip-rule="evenodd" d="M13.7978 21.9854C16.1819 21.9854 18.1147 19.9957 18.1147 17.5412C18.1147 15.0866 16.1819 13.0969 13.7978 13.0969C11.4137 13.0969 9.48096 15.0866 9.48096 17.5412C9.48096 19.9957 11.4137 21.9854 13.7978 21.9854Z" fill="white"/>
</svg>
