<svg width="86" height="18" viewBox="0 0 86 18" fill="none" xmlns="http://www.w3.org/2000/svg">
<path d="M5.24 17.5H1.52C1.216 17.5 0.992 17.436 0.848 17.308C0.72 17.164 0.656 16.94 0.656 16.636V1.084C0.656 0.78 0.72 0.564 0.848 0.435999C0.992 0.291999 1.216 0.219999 1.52 0.219999H5.24C5.544 0.219999 5.76 0.291999 5.888 0.435999C6.032 0.564 6.104 0.78 6.104 1.084V6.604H7.064L9.536 1.012C9.648 0.723999 9.8 0.523999 9.992 0.412C10.184 0.283999 10.432 0.219999 10.736 0.219999H14.432C14.704 0.219999 14.888 0.291999 14.984 0.435999C15.08 0.564 15.072 0.756 14.96 1.012L12.512 6.604C13.408 6.652 14.12 6.972 14.648 7.564C15.192 8.14 15.464 8.908 15.464 9.868V16.636C15.464 16.94 15.392 17.164 15.248 17.308C15.12 17.436 14.904 17.5 14.6 17.5H10.904C10.6 17.5 10.376 17.436 10.232 17.308C10.104 17.164 10.04 16.94 10.04 16.636V11.956C10.04 11.7 9.976 11.5 9.848 11.356C9.72 11.212 9.528 11.14 9.272 11.14H6.104V16.636C6.104 16.94 6.032 17.164 5.888 17.308C5.76 17.436 5.544 17.5 5.24 17.5ZM24.8263 5.26L23.6983 8.908H27.4663L26.3383 5.26C26.2743 5.116 26.2023 5.012 26.1223 4.948C26.0583 4.884 25.9783 4.852 25.8823 4.852H25.2823C25.1863 4.852 25.0983 4.884 25.0183 4.948C24.9543 5.012 24.8903 5.116 24.8263 5.26ZM23.4583 16.636C23.4583 16.94 23.3863 17.164 23.2422 17.308C23.1143 17.436 22.8983 17.5 22.5943 17.5H19.0663C18.7623 17.5 18.5383 17.436 18.3943 17.308C18.2663 17.164 18.2023 16.94 18.2023 16.636V10.3C18.2023 9.82 18.2743 9.268 18.4183 8.644C18.5783 8.02 18.8183 7.292 19.1383 6.46L21.2263 1.012C21.3223 0.739999 21.4663 0.539999 21.6583 0.412C21.8663 0.283999 22.1303 0.219999 22.4503 0.219999H28.9062C29.2103 0.219999 29.4583 0.283999 29.6503 0.412C29.8583 0.539999 30.0103 0.739999 30.1063 1.012L32.1943 6.46C32.5143 7.292 32.7463 8.02 32.8903 8.644C33.0503 9.268 33.1303 9.82 33.1303 10.3V16.636C33.1303 16.94 33.0583 17.164 32.9143 17.308C32.7863 17.436 32.5703 17.5 32.2663 17.5H28.6423C28.3223 17.5 28.0823 17.436 27.9223 17.308C27.7783 17.164 27.7063 16.94 27.7063 16.636V13.276H23.4583V16.636ZM40.5575 17.5H36.9575C36.6535 17.5 36.4295 17.436 36.2855 17.308C36.1575 17.164 36.0935 16.94 36.0935 16.636V1.084C36.0935 0.78 36.1575 0.564 36.2855 0.435999C36.4295 0.291999 36.6535 0.219999 36.9575 0.219999H39.4535C39.7575 0.219999 40.0135 0.267999 40.2215 0.363999C40.4455 0.46 40.6615 0.628 40.8695 0.868L45.5255 6.196V1.084C45.5255 0.78 45.5895 0.564 45.7175 0.435999C45.8615 0.291999 46.0855 0.219999 46.3895 0.219999H49.9895C50.2935 0.219999 50.5095 0.291999 50.6375 0.435999C50.7815 0.564 50.8535 0.78 50.8535 1.084V16.636C50.8535 16.94 50.7815 17.164 50.6375 17.308C50.5095 17.436 50.2935 17.5 49.9895 17.5H46.3895C46.0855 17.5 45.8615 17.436 45.7175 17.308C45.5895 17.164 45.5255 16.94 45.5255 16.636V13.684L41.4215 8.716V16.636C41.4215 16.94 41.3495 17.164 41.2055 17.308C41.0775 17.436 40.8615 17.5 40.5575 17.5ZM67.3638 17.5H59.8038C57.8038 17.5 56.3158 17.1 55.3398 16.3C54.3798 15.5 53.8998 14.268 53.8998 12.604V5.116C53.8998 3.452 54.3798 2.22 55.3398 1.42C56.3158 0.619999 57.8038 0.219999 59.8038 0.219999H65.8038C66.1078 0.219999 66.3238 0.291999 66.4518 0.435999C66.5958 0.564 66.6678 0.78 66.6678 1.084V3.988C66.6678 4.292 66.5958 4.516 66.4518 4.66C66.3238 4.788 66.1078 4.852 65.8038 4.852H60.8118C60.3158 4.852 59.9478 4.956 59.7078 5.164C59.4678 5.356 59.3478 5.652 59.3478 6.052V11.788C59.3478 12.188 59.4358 12.484 59.6118 12.676C59.8038 12.868 60.0838 12.964 60.4518 12.964H62.7798V9.22C62.7798 8.916 62.8438 8.7 62.9718 8.572C63.1158 8.428 63.3398 8.356 63.6438 8.356H67.3638C67.6678 8.356 67.8838 8.428 68.0118 8.572C68.1558 8.7 68.2278 8.916 68.2278 9.22V16.636C68.2278 16.94 68.1558 17.164 68.0118 17.308C67.8838 17.436 67.6678 17.5 67.3638 17.5ZM77.42 5.26L76.292 8.908H80.06L78.932 5.26C78.868 5.116 78.796 5.012 78.716 4.948C78.652 4.884 78.572 4.852 78.476 4.852H77.876C77.78 4.852 77.692 4.884 77.612 4.948C77.548 5.012 77.484 5.116 77.42 5.26ZM76.052 16.636C76.052 16.94 75.98 17.164 75.836 17.308C75.708 17.436 75.492 17.5 75.188 17.5H71.66C71.356 17.5 71.132 17.436 70.988 17.308C70.86 17.164 70.796 16.94 70.796 16.636V10.3C70.796 9.82 70.868 9.268 71.012 8.644C71.172 8.02 71.412 7.292 71.732 6.46L73.82 1.012C73.916 0.739999 74.06 0.539999 74.252 0.412C74.46 0.283999 74.724 0.219999 75.044 0.219999H81.5C81.804 0.219999 82.052 0.283999 82.244 0.412C82.452 0.539999 82.604 0.739999 82.7 1.012L84.788 6.46C85.108 7.292 85.34 8.02 85.484 8.644C85.644 9.268 85.724 9.82 85.724 10.3V16.636C85.724 16.94 85.652 17.164 85.508 17.308C85.38 17.436 85.164 17.5 84.86 17.5H81.236C80.916 17.5 80.676 17.436 80.516 17.308C80.372 17.164 80.3 16.94 80.3 16.636V13.276H76.052V16.636Z" fill="black"/>
</svg>
