<svg width="159" height="23" viewBox="0 0 159 23" fill="none" xmlns="http://www.w3.org/2000/svg">
<path d="M74.686 17C74.5273 16.58 74.378 16.1693 74.238 15.768C74.098 15.3573 73.9533 14.942 73.804 14.522H69.408L68.526 17H67.112C67.4853 15.9733 67.8353 15.026 68.162 14.158C68.4887 13.2807 68.806 12.45 69.114 11.666C69.4313 10.882 69.744 10.1353 70.052 9.426C70.36 8.70733 70.682 7.998 71.018 7.298H72.264C72.6 7.998 72.922 8.70733 73.23 9.426C73.538 10.1353 73.846 10.882 74.154 11.666C74.4713 12.45 74.7933 13.2807 75.12 14.158C75.4467 15.026 75.7967 15.9733 76.17 17H74.686ZM73.412 13.402C73.1133 12.59 72.8147 11.806 72.516 11.05C72.2267 10.2847 71.9233 9.552 71.606 8.852C71.2793 9.552 70.9667 10.2847 70.668 11.05C70.3787 11.806 70.0893 12.59 69.8 13.402H73.412ZM81.9295 11.26C81.7708 11.1293 81.5421 11.0033 81.2435 10.882C80.9448 10.7607 80.6181 10.7 80.2635 10.7C79.8901 10.7 79.5681 10.77 79.2975 10.91C79.0361 11.0407 78.8215 11.2273 78.6535 11.47C78.4855 11.7033 78.3641 11.9833 78.2895 12.31C78.2148 12.6367 78.1775 12.9867 78.1775 13.36C78.1775 14.2093 78.3875 14.8673 78.8075 15.334C79.2275 15.7913 79.7875 16.02 80.4875 16.02C80.8421 16.02 81.1361 16.006 81.3695 15.978C81.6121 15.9407 81.7988 15.9033 81.9295 15.866V11.26ZM81.9295 6.36L83.2315 6.136V16.79C82.9328 16.874 82.5501 16.958 82.0835 17.042C81.6168 17.126 81.0801 17.168 80.4735 17.168C79.9135 17.168 79.4095 17.0793 78.9615 16.902C78.5135 16.7247 78.1308 16.4727 77.8135 16.146C77.4961 15.8193 77.2488 15.4227 77.0715 14.956C76.9035 14.48 76.8195 13.948 76.8195 13.36C76.8195 12.8 76.8895 12.2867 77.0295 11.82C77.1788 11.3533 77.3935 10.952 77.6735 10.616C77.9535 10.28 78.2941 10.0187 78.6955 9.832C79.1061 9.64533 79.5728 9.552 80.0955 9.552C80.5155 9.552 80.8841 9.608 81.2015 9.72C81.5281 9.832 81.7708 9.93933 81.9295 10.042V6.36ZM85.4696 9.93C85.7683 9.85533 86.1603 9.776 86.6456 9.692C87.1403 9.608 87.7096 9.566 88.3536 9.566C88.8203 9.566 89.2123 9.63133 89.5296 9.762C89.8469 9.88333 90.1129 10.0653 90.3276 10.308C90.3929 10.2613 90.4956 10.196 90.6356 10.112C90.7756 10.028 90.9483 9.94867 91.1536 9.874C91.3589 9.79 91.5876 9.72 91.8396 9.664C92.0916 9.59867 92.3623 9.566 92.6516 9.566C93.2116 9.566 93.6689 9.65 94.0236 9.818C94.3783 9.97667 94.6536 10.2053 94.8496 10.504C95.0549 10.8027 95.1903 11.1573 95.2556 11.568C95.3303 11.9787 95.3676 12.4267 95.3676 12.912V17H94.0656V13.192C94.0656 12.7627 94.0423 12.394 93.9956 12.086C93.9583 11.778 93.8789 11.5213 93.7576 11.316C93.6456 11.1107 93.4869 10.9613 93.2816 10.868C93.0856 10.7653 92.8289 10.714 92.5116 10.714C92.0729 10.714 91.7089 10.7747 91.4196 10.896C91.1396 11.008 90.9483 11.1107 90.8456 11.204C90.9203 11.4467 90.9763 11.7127 91.0136 12.002C91.0509 12.2913 91.0696 12.5947 91.0696 12.912V17H89.7676V13.192C89.7676 12.7627 89.7443 12.394 89.6976 12.086C89.6509 11.778 89.5669 11.5213 89.4456 11.316C89.3336 11.1107 89.1749 10.9613 88.9696 10.868C88.7736 10.7653 88.5216 10.714 88.2136 10.714C88.0829 10.714 87.9429 10.7187 87.7936 10.728C87.6443 10.7373 87.4996 10.7513 87.3596 10.77C87.2289 10.7793 87.1076 10.7933 86.9956 10.812C86.8836 10.8307 86.8089 10.8447 86.7716 10.854V17H85.4696V9.93ZM98.8302 17H97.5282V9.72H98.8302V17ZM98.1722 8.404C97.9389 8.404 97.7382 8.32933 97.5702 8.18C97.4115 8.02133 97.3322 7.81133 97.3322 7.55C97.3322 7.28867 97.4115 7.08333 97.5702 6.934C97.7382 6.77533 97.9389 6.696 98.1722 6.696C98.4055 6.696 98.6015 6.77533 98.7602 6.934C98.9282 7.08333 99.0122 7.28867 99.0122 7.55C99.0122 7.81133 98.9282 8.02133 98.7602 8.18C98.6015 8.32933 98.4055 8.404 98.1722 8.404ZM101.069 9.93C101.368 9.85533 101.765 9.776 102.259 9.692C102.754 9.608 103.323 9.566 103.967 9.566C104.546 9.566 105.027 9.65 105.409 9.818C105.792 9.97667 106.095 10.2053 106.319 10.504C106.553 10.7933 106.716 11.1433 106.809 11.554C106.903 11.9647 106.949 12.4173 106.949 12.912V17H105.647V13.192C105.647 12.744 105.615 12.3613 105.549 12.044C105.493 11.7267 105.395 11.47 105.255 11.274C105.115 11.078 104.929 10.938 104.695 10.854C104.462 10.7607 104.173 10.714 103.827 10.714C103.687 10.714 103.543 10.7187 103.393 10.728C103.244 10.7373 103.099 10.7513 102.959 10.77C102.829 10.7793 102.707 10.7933 102.595 10.812C102.493 10.8307 102.418 10.8447 102.371 10.854V17H101.069V9.93ZM110.41 17H109.108V9.72H110.41V17ZM109.752 8.404C109.519 8.404 109.318 8.32933 109.15 8.18C108.992 8.02133 108.912 7.81133 108.912 7.55C108.912 7.28867 108.992 7.08333 109.15 6.934C109.318 6.77533 109.519 6.696 109.752 6.696C109.986 6.696 110.182 6.77533 110.34 6.934C110.508 7.08333 110.592 7.28867 110.592 7.55C110.592 7.81133 110.508 8.02133 110.34 8.18C110.182 8.32933 109.986 8.404 109.752 8.404ZM114.343 16.062C114.875 16.062 115.267 15.992 115.519 15.852C115.781 15.712 115.911 15.488 115.911 15.18C115.911 14.8627 115.785 14.6107 115.533 14.424C115.281 14.2373 114.866 14.0273 114.287 13.794C114.007 13.682 113.737 13.57 113.475 13.458C113.223 13.3367 113.004 13.1967 112.817 13.038C112.631 12.8793 112.481 12.688 112.369 12.464C112.257 12.24 112.201 11.9647 112.201 11.638C112.201 10.994 112.439 10.4853 112.915 10.112C113.391 9.72933 114.04 9.538 114.861 9.538C115.067 9.538 115.272 9.552 115.477 9.58C115.683 9.59867 115.874 9.62667 116.051 9.664C116.229 9.692 116.383 9.72467 116.513 9.762C116.653 9.79933 116.761 9.832 116.835 9.86L116.597 10.98C116.457 10.9053 116.238 10.8307 115.939 10.756C115.641 10.672 115.281 10.63 114.861 10.63C114.497 10.63 114.18 10.7047 113.909 10.854C113.639 10.994 113.503 11.218 113.503 11.526C113.503 11.6847 113.531 11.8247 113.587 11.946C113.653 12.0673 113.746 12.1793 113.867 12.282C113.998 12.3753 114.157 12.464 114.343 12.548C114.53 12.632 114.754 12.7207 115.015 12.814C115.361 12.9447 115.669 13.0753 115.939 13.206C116.21 13.3273 116.439 13.472 116.625 13.64C116.821 13.808 116.971 14.0133 117.073 14.256C117.176 14.4893 117.227 14.7787 117.227 15.124C117.227 15.796 116.975 16.3047 116.471 16.65C115.977 16.9953 115.267 17.168 114.343 17.168C113.699 17.168 113.195 17.112 112.831 17C112.467 16.8973 112.22 16.818 112.089 16.762L112.327 15.642C112.477 15.698 112.715 15.782 113.041 15.894C113.368 16.006 113.802 16.062 114.343 16.062ZM120.115 9.72H122.873V10.812H120.115V14.172C120.115 14.536 120.143 14.8393 120.199 15.082C120.255 15.3153 120.339 15.502 120.451 15.642C120.563 15.7727 120.703 15.866 120.871 15.922C121.039 15.978 121.235 16.006 121.459 16.006C121.851 16.006 122.164 15.964 122.397 15.88C122.64 15.7867 122.808 15.7213 122.901 15.684L123.153 16.762C123.023 16.8273 122.794 16.9067 122.467 17C122.141 17.1027 121.767 17.154 121.347 17.154C120.853 17.154 120.442 17.0933 120.115 16.972C119.798 16.8413 119.541 16.65 119.345 16.398C119.149 16.146 119.009 15.838 118.925 15.474C118.851 15.1007 118.813 14.6713 118.813 14.186V7.69L120.115 7.466V9.72ZM127.218 9.566C127.33 9.566 127.456 9.57533 127.596 9.594C127.745 9.60333 127.89 9.622 128.03 9.65C128.17 9.66867 128.296 9.692 128.408 9.72C128.529 9.73867 128.618 9.75733 128.674 9.776L128.45 10.91C128.347 10.8727 128.175 10.8307 127.932 10.784C127.699 10.728 127.395 10.7 127.022 10.7C126.779 10.7 126.537 10.728 126.294 10.784C126.061 10.8307 125.907 10.8633 125.832 10.882V17H124.53V10.028C124.838 9.916 125.221 9.81333 125.678 9.72C126.135 9.61733 126.649 9.566 127.218 9.566ZM132.395 16.062C132.703 16.062 132.973 16.0573 133.207 16.048C133.449 16.0293 133.65 16.0013 133.809 15.964V13.794C133.715 13.7473 133.561 13.71 133.347 13.682C133.141 13.6447 132.889 13.626 132.591 13.626C132.395 13.626 132.185 13.64 131.961 13.668C131.746 13.696 131.545 13.7567 131.359 13.85C131.181 13.934 131.032 14.0553 130.911 14.214C130.789 14.3633 130.729 14.564 130.729 14.816C130.729 15.2827 130.878 15.6093 131.177 15.796C131.475 15.9733 131.881 16.062 132.395 16.062ZM132.283 9.538C132.805 9.538 133.244 9.608 133.599 9.748C133.963 9.87867 134.252 10.07 134.467 10.322C134.691 10.5647 134.849 10.8587 134.943 11.204C135.036 11.54 135.083 11.9133 135.083 12.324V16.874C134.971 16.8927 134.812 16.9207 134.607 16.958C134.411 16.986 134.187 17.014 133.935 17.042C133.683 17.07 133.407 17.0933 133.109 17.112C132.819 17.14 132.53 17.154 132.241 17.154C131.83 17.154 131.452 17.112 131.107 17.028C130.761 16.944 130.463 16.8133 130.211 16.636C129.959 16.4493 129.763 16.2067 129.623 15.908C129.483 15.6093 129.413 15.25 129.413 14.83C129.413 14.4287 129.492 14.0833 129.651 13.794C129.819 13.5047 130.043 13.2713 130.323 13.094C130.603 12.9167 130.929 12.786 131.303 12.702C131.676 12.618 132.068 12.576 132.479 12.576C132.609 12.576 132.745 12.5853 132.885 12.604C133.025 12.6133 133.155 12.632 133.277 12.66C133.407 12.6787 133.519 12.6973 133.613 12.716C133.706 12.7347 133.771 12.7487 133.809 12.758V12.394C133.809 12.1793 133.785 11.9693 133.739 11.764C133.692 11.5493 133.608 11.3627 133.487 11.204C133.365 11.036 133.197 10.9053 132.983 10.812C132.777 10.7093 132.507 10.658 132.171 10.658C131.741 10.658 131.363 10.6907 131.037 10.756C130.719 10.812 130.481 10.8727 130.323 10.938L130.169 9.86C130.337 9.78533 130.617 9.71533 131.009 9.65C131.401 9.57533 131.825 9.538 132.283 9.538ZM141.949 11.26C141.79 11.1293 141.562 11.0033 141.263 10.882C140.964 10.7607 140.638 10.7 140.283 10.7C139.91 10.7 139.588 10.77 139.317 10.91C139.056 11.0407 138.841 11.2273 138.673 11.47C138.505 11.7033 138.384 11.9833 138.309 12.31C138.234 12.6367 138.197 12.9867 138.197 13.36C138.197 14.2093 138.407 14.8673 138.827 15.334C139.247 15.7913 139.807 16.02 140.507 16.02C140.862 16.02 141.156 16.006 141.389 15.978C141.632 15.9407 141.818 15.9033 141.949 15.866V11.26ZM141.949 6.36L143.251 6.136V16.79C142.952 16.874 142.57 16.958 142.103 17.042C141.636 17.126 141.1 17.168 140.493 17.168C139.933 17.168 139.429 17.0793 138.981 16.902C138.533 16.7247 138.15 16.4727 137.833 16.146C137.516 15.8193 137.268 15.4227 137.091 14.956C136.923 14.48 136.839 13.948 136.839 13.36C136.839 12.8 136.909 12.2867 137.049 11.82C137.198 11.3533 137.413 10.952 137.693 10.616C137.973 10.28 138.314 10.0187 138.715 9.832C139.126 9.64533 139.592 9.552 140.115 9.552C140.535 9.552 140.904 9.608 141.221 9.72C141.548 9.832 141.79 9.93933 141.949 10.042V6.36ZM151.915 13.36C151.915 13.9387 151.831 14.4613 151.663 14.928C151.495 15.3947 151.257 15.796 150.949 16.132C150.65 16.468 150.291 16.7293 149.871 16.916C149.451 17.0933 148.994 17.182 148.499 17.182C148.004 17.182 147.547 17.0933 147.127 16.916C146.707 16.7293 146.343 16.468 146.035 16.132C145.736 15.796 145.503 15.3947 145.335 14.928C145.167 14.4613 145.083 13.9387 145.083 13.36C145.083 12.7907 145.167 12.2727 145.335 11.806C145.503 11.33 145.736 10.924 146.035 10.588C146.343 10.252 146.707 9.99533 147.127 9.818C147.547 9.63133 148.004 9.538 148.499 9.538C148.994 9.538 149.451 9.63133 149.871 9.818C150.291 9.99533 150.65 10.252 150.949 10.588C151.257 10.924 151.495 11.33 151.663 11.806C151.831 12.2727 151.915 12.7907 151.915 13.36ZM150.557 13.36C150.557 12.5387 150.37 11.89 149.997 11.414C149.633 10.9287 149.134 10.686 148.499 10.686C147.864 10.686 147.36 10.9287 146.987 11.414C146.623 11.89 146.441 12.5387 146.441 13.36C146.441 14.1813 146.623 14.8347 146.987 15.32C147.36 15.796 147.864 16.034 148.499 16.034C149.134 16.034 149.633 15.796 149.997 15.32C150.37 14.8347 150.557 14.1813 150.557 13.36ZM156.435 9.566C156.547 9.566 156.673 9.57533 156.813 9.594C156.962 9.60333 157.107 9.622 157.247 9.65C157.387 9.66867 157.513 9.692 157.625 9.72C157.746 9.73867 157.835 9.75733 157.891 9.776L157.667 10.91C157.564 10.8727 157.392 10.8307 157.149 10.784C156.916 10.728 156.612 10.7 156.239 10.7C155.996 10.7 155.754 10.728 155.511 10.784C155.278 10.8307 155.124 10.8633 155.049 10.882V17H153.747V10.028C154.055 9.916 154.438 9.81333 154.895 9.72C155.352 9.61733 155.866 9.566 156.435 9.566Z" fill="black"/>
<g filter="url(#filter0_d_511_1155)">
<path d="M4.68 17H1.89C1.662 17 1.494 16.952 1.386 16.856C1.29 16.748 1.242 16.58 1.242 16.352V4.688C1.242 4.46 1.29 4.298 1.386 4.202C1.494 4.094 1.662 4.04 1.89 4.04H4.68C4.908 4.04 5.07 4.094 5.166 4.202C5.274 4.298 5.328 4.46 5.328 4.688V8.828H6.048L7.902 4.634C7.986 4.418 8.1 4.268 8.244 4.184C8.388 4.088 8.574 4.04 8.802 4.04H11.574C11.778 4.04 11.916 4.094 11.988 4.202C12.06 4.298 12.054 4.442 11.97 4.634L10.134 8.828C10.806 8.864 11.34 9.104 11.736 9.548C12.144 9.98 12.348 10.556 12.348 11.276V16.352C12.348 16.58 12.294 16.748 12.186 16.856C12.09 16.952 11.928 17 11.7 17H8.928C8.7 17 8.532 16.952 8.424 16.856C8.328 16.748 8.28 16.58 8.28 16.352V12.842C8.28 12.65 8.232 12.5 8.136 12.392C8.04 12.284 7.896 12.23 7.704 12.23H5.328V16.352C5.328 16.58 5.274 16.748 5.166 16.856C5.07 16.952 4.908 17 4.68 17ZM19.3697 7.82L18.5237 10.556H21.3497L20.5037 7.82C20.4557 7.712 20.4017 7.634 20.3417 7.586C20.2937 7.538 20.2337 7.514 20.1617 7.514H19.7117C19.6397 7.514 19.5737 7.538 19.5137 7.586C19.4657 7.634 19.4177 7.712 19.3697 7.82ZM18.3437 16.352C18.3437 16.58 18.2897 16.748 18.1817 16.856C18.0857 16.952 17.9237 17 17.6957 17H15.0497C14.8217 17 14.6537 16.952 14.5457 16.856C14.4497 16.748 14.4017 16.58 14.4017 16.352V11.6C14.4017 11.24 14.4557 10.826 14.5637 10.358C14.6837 9.89 14.8637 9.344 15.1037 8.72L16.6697 4.634C16.7417 4.43 16.8497 4.28 16.9937 4.184C17.1497 4.088 17.3477 4.04 17.5877 4.04H22.4297C22.6577 4.04 22.8437 4.088 22.9877 4.184C23.1437 4.28 23.2577 4.43 23.3297 4.634L24.8957 8.72C25.1357 9.344 25.3097 9.89 25.4177 10.358C25.5377 10.826 25.5977 11.24 25.5977 11.6V16.352C25.5977 16.58 25.5437 16.748 25.4357 16.856C25.3397 16.952 25.1777 17 24.9497 17H22.2317C21.9917 17 21.8117 16.952 21.6917 16.856C21.5837 16.748 21.5297 16.58 21.5297 16.352V13.832H18.3437V16.352ZM31.1681 17H28.4681C28.2401 17 28.0721 16.952 27.9641 16.856C27.8681 16.748 27.8201 16.58 27.8201 16.352V4.688C27.8201 4.46 27.8681 4.298 27.9641 4.202C28.0721 4.094 28.2401 4.04 28.4681 4.04H30.3401C30.5681 4.04 30.7601 4.076 30.9161 4.148C31.0841 4.22 31.2461 4.346 31.4021 4.526L34.8941 8.522V4.688C34.8941 4.46 34.9421 4.298 35.0381 4.202C35.1461 4.094 35.3141 4.04 35.5421 4.04H38.2421C38.4701 4.04 38.6321 4.094 38.7281 4.202C38.8361 4.298 38.8901 4.46 38.8901 4.688V16.352C38.8901 16.58 38.8361 16.748 38.7281 16.856C38.6321 16.952 38.4701 17 38.2421 17H35.5421C35.3141 17 35.1461 16.952 35.0381 16.856C34.9421 16.748 34.8941 16.58 34.8941 16.352V14.138L31.8161 10.412V16.352C31.8161 16.58 31.7621 16.748 31.6541 16.856C31.5581 16.952 31.3961 17 31.1681 17ZM51.2729 17H45.6029C44.1029 17 42.9869 16.7 42.2549 16.1C41.5349 15.5 41.1749 14.576 41.1749 13.328V7.712C41.1749 6.464 41.5349 5.54 42.2549 4.94C42.9869 4.34 44.1029 4.04 45.6029 4.04H50.1029C50.3309 4.04 50.4929 4.094 50.5889 4.202C50.6969 4.298 50.7509 4.46 50.7509 4.688V6.866C50.7509 7.094 50.6969 7.262 50.5889 7.37C50.4929 7.466 50.3309 7.514 50.1029 7.514H46.3589C45.9869 7.514 45.7109 7.592 45.5309 7.748C45.3509 7.892 45.2609 8.114 45.2609 8.414V12.716C45.2609 13.016 45.3269 13.238 45.4589 13.382C45.6029 13.526 45.8129 13.598 46.0889 13.598H47.8349V10.79C47.8349 10.562 47.8829 10.4 47.9789 10.304C48.0869 10.196 48.2549 10.142 48.4829 10.142H51.2729C51.5009 10.142 51.6629 10.196 51.7589 10.304C51.8669 10.4 51.9209 10.562 51.9209 10.79V16.352C51.9209 16.58 51.8669 16.748 51.7589 16.856C51.6629 16.952 51.5009 17 51.2729 17ZM58.815 7.82L57.969 10.556H60.795L59.949 7.82C59.901 7.712 59.847 7.634 59.787 7.586C59.739 7.538 59.679 7.514 59.607 7.514H59.157C59.085 7.514 59.019 7.538 58.959 7.586C58.911 7.634 58.863 7.712 58.815 7.82ZM57.789 16.352C57.789 16.58 57.735 16.748 57.627 16.856C57.531 16.952 57.369 17 57.141 17H54.495C54.267 17 54.099 16.952 53.991 16.856C53.895 16.748 53.847 16.58 53.847 16.352V11.6C53.847 11.24 53.901 10.826 54.009 10.358C54.129 9.89 54.309 9.344 54.549 8.72L56.115 4.634C56.187 4.43 56.295 4.28 56.439 4.184C56.595 4.088 56.793 4.04 57.033 4.04H61.875C62.103 4.04 62.289 4.088 62.433 4.184C62.589 4.28 62.703 4.43 62.775 4.634L64.341 8.72C64.581 9.344 64.755 9.89 64.863 10.358C64.983 10.826 65.043 11.24 65.043 11.6V16.352C65.043 16.58 64.989 16.748 64.881 16.856C64.785 16.952 64.623 17 64.395 17H61.677C61.437 17 61.257 16.952 61.137 16.856C61.029 16.748 60.975 16.58 60.975 16.352V13.832H57.789V16.352Z" fill="black"/>
</g>
<defs>
<filter id="filter0_d_511_1155" x="1.24194" y="4.03999" width="63.801" height="18.96" filterUnits="userSpaceOnUse" color-interpolation-filters="sRGB">
<feFlood flood-opacity="0" result="BackgroundImageFix"/>
<feColorMatrix in="SourceAlpha" type="matrix" values="0 0 0 0 0 0 0 0 0 0 0 0 0 0 0 0 0 0 127 0" result="hardAlpha"/>
<feOffset dy="6"/>
<feComposite in2="hardAlpha" operator="out"/>
<feColorMatrix type="matrix" values="0 0 0 0 0 0 0 0 0 0 0 0 0 0 0 0 0 0 0.25 0"/>
<feBlend mode="normal" in2="BackgroundImageFix" result="effect1_dropShadow_511_1155"/>
<feBlend mode="normal" in="SourceGraphic" in2="effect1_dropShadow_511_1155" result="shape"/>
</filter>
</defs>
</svg>
