<svg width="86" height="19" viewBox="0 0 86 19" fill="none" xmlns="http://www.w3.org/2000/svg">
<path d="M4.62236 18.0407L0.902363 18.0457C0.598363 18.0461 0.374277 17.9824 0.230106 17.8546C0.101913 17.7107 0.0376135 17.4868 0.0372064 17.1828L0.0163787 1.63085C0.0159715 1.32685 0.0796822 1.11076 0.207511 0.982591C0.351318 0.838399 0.575221 0.766099 0.879221 0.765692L4.59922 0.76071C4.90322 0.760303 5.11931 0.832013 5.24751 0.975842C5.39168 1.10365 5.46397 1.31955 5.46437 1.62355L5.47177 7.14355L6.43177 7.14226L8.89627 1.54696C9.00789 1.25881 9.15962 1.0586 9.35147 0.946346C9.5433 0.818089 9.79121 0.753756 10.0952 0.753349L13.7912 0.748399C14.0632 0.748035 14.2473 0.819789 14.3435 0.96366C14.4397 1.09153 14.4319 1.28354 14.3203 1.53969L11.8798 7.13497C12.7758 7.18176 13.4883 7.50081 14.017 8.0921C14.5618 8.66737 14.8348 9.43501 14.8361 10.395L14.8452 17.163C14.8456 17.467 14.7739 17.6911 14.6301 17.8353C14.5023 17.9635 14.2864 18.0278 13.9824 18.0282L10.2864 18.0331C9.98236 18.0335 9.75827 17.9698 9.6141 17.842C9.48591 17.6982 9.42161 17.4743 9.4212 17.1703L9.41493 12.4903C9.41459 12.2343 9.35032 12.0344 9.22213 11.8905C9.09393 11.7467 8.90184 11.675 8.64584 11.6753L5.47784 11.6795L5.4852 17.1755C5.48561 17.4795 5.41391 17.7036 5.2701 17.8478C5.14227 17.976 4.92636 18.0403 4.62236 18.0407ZM24.1922 5.77447L23.0691 9.42398L26.8371 9.41894L25.7042 5.77245C25.64 5.62853 25.5679 5.52463 25.4878 5.46074C25.4237 5.39683 25.3437 5.36493 25.2477 5.36506L24.6477 5.36586C24.5517 5.36599 24.4637 5.39811 24.3838 5.46222C24.3199 5.5263 24.256 5.63039 24.1922 5.77447ZM22.8394 17.1523C22.8398 17.4563 22.7681 17.6804 22.6243 17.8246C22.4965 17.9528 22.2806 18.017 21.9766 18.0175L18.4486 18.0222C18.1446 18.0226 17.9205 17.9589 17.7763 17.8311C17.6481 17.6872 17.5838 17.4633 17.5834 17.1593L17.575 10.8233C17.5743 10.3433 17.6456 9.79125 17.7887 9.16705C17.9479 8.54284 18.1869 7.81452 18.5058 6.98209L20.5865 1.5313C20.6821 1.25917 20.8259 1.05898 21.0177 0.930722C21.2255 0.802443 21.4895 0.73809 21.8095 0.737661L28.2654 0.729015C28.5694 0.728608 28.8175 0.792276 29.0097 0.920019C29.2179 1.04774 29.3701 1.24754 29.4665 1.51941L31.5618 6.96461C31.8829 7.79618 32.1159 8.52387 32.2607 9.14767C32.4216 9.77146 32.5023 10.3233 32.5029 10.8033L32.5114 17.1393C32.5118 17.4433 32.4401 17.6674 32.2963 17.8116C32.1685 17.9398 31.9526 18.0041 31.6486 18.0045L28.0246 18.0094C27.7046 18.0098 27.4645 17.9461 27.3043 17.8183C27.1601 17.6745 27.0878 17.4506 27.0874 17.1466L27.0829 13.7866L22.8349 13.7923L22.8394 17.1523ZM39.9398 17.9934L36.3398 17.9982C36.0358 17.9986 35.8117 17.9349 35.6676 17.8071C35.5394 17.6633 35.4751 17.4394 35.4747 17.1354L35.4538 1.58339C35.4534 1.27939 35.5172 1.0633 35.645 0.935132C35.7888 0.79094 36.0127 0.71864 36.3167 0.718233L38.8127 0.71489C39.1167 0.714483 39.3728 0.76214 39.5809 0.857861C39.805 0.953561 40.0212 1.12127 40.2296 1.36099L44.8927 6.68275L44.8858 1.57076C44.8854 1.26676 44.9491 1.05067 45.077 0.922501C45.2208 0.778308 45.4447 0.706008 45.7487 0.705601L49.3487 0.70078C49.6527 0.700373 49.8688 0.772083 49.997 0.915912C50.1411 1.04372 50.2134 1.25962 50.2138 1.56362L50.2347 17.1156C50.2351 17.4196 50.1634 17.6437 50.0196 17.7879C49.8917 17.9161 49.6758 17.9804 49.3718 17.9808L45.7718 17.9856C45.4678 17.986 45.2437 17.9223 45.0996 17.7945C44.9714 17.6507 44.9071 17.4267 44.9067 17.1227L44.9027 14.1707L40.7921 9.20825L40.8027 17.1282C40.8031 17.4322 40.7314 17.6563 40.5876 17.8005C40.4597 17.9287 40.2438 17.993 39.9398 17.9934ZM66.7461 17.9575L59.1861 17.9676C57.1861 17.9703 55.6976 17.5723 54.7205 16.7736C53.7594 15.9749 53.2778 14.7435 53.2756 13.0795L53.2655 5.59154C53.2633 3.92754 53.7417 2.6949 54.7006 1.89361C55.6755 1.09231 57.163 0.690314 59.163 0.687636L65.163 0.679601C65.467 0.679194 65.6831 0.750904 65.8113 0.894733C65.9554 1.02254 66.0277 1.23844 66.0281 1.54244L66.032 4.44644C66.0324 4.75044 65.9607 4.97454 65.8169 5.11873C65.6891 5.2469 65.4732 5.31119 65.1692 5.3116L60.1772 5.31828C59.6812 5.31895 59.3133 5.42344 59.0736 5.63176C58.8339 5.82408 58.7143 6.12024 58.7148 6.52024L58.7225 12.2562C58.723 12.6562 58.8114 12.9521 58.9877 13.1439C59.1799 13.3356 59.46 13.4313 59.828 13.4308L62.156 13.4276L62.151 9.68364C62.1506 9.37964 62.2143 9.16356 62.3422 9.03539C62.486 8.89119 62.7099 8.81889 63.0139 8.81849L66.7339 8.8135C67.0379 8.8131 67.254 8.88481 67.3822 9.02864C67.5263 9.15644 67.5986 9.37235 67.599 9.67635L67.609 17.0923C67.6094 17.3963 67.5377 17.6204 67.3939 17.7646C67.266 17.8928 67.0501 17.9571 66.7461 17.9575ZM76.7859 5.70404L75.6628 9.35355L79.4308 9.3485L78.2979 5.70201C78.2337 5.5581 78.1616 5.4542 78.0815 5.3903C78.0174 5.32639 77.9374 5.2945 77.8414 5.29463L77.2414 5.29543C77.1454 5.29556 77.0574 5.32768 76.9775 5.39178C76.9136 5.45587 76.8497 5.55995 76.7859 5.70404ZM75.4331 17.0819C75.4335 17.3859 75.3618 17.61 75.218 17.7542C75.0902 17.8823 74.8743 17.9466 74.5703 17.947L71.0423 17.9517C70.7383 17.9522 70.5142 17.8885 70.37 17.7606C70.2419 17.6168 70.1776 17.3929 70.1771 17.0889L70.1687 10.7529C70.168 10.2729 70.2393 9.72081 70.3824 9.09662C70.5416 8.4724 70.7806 7.74408 71.0995 6.91166L73.1802 1.46086C73.2759 1.18874 73.4196 0.988543 73.6114 0.860287C73.8192 0.732008 74.0832 0.667654 74.4032 0.667226L80.8591 0.65858C81.1631 0.658173 81.4112 0.721841 81.6034 0.849584C81.8116 0.977304 81.9638 1.1771 82.0602 1.44897L84.1555 6.89417C84.4766 7.72574 84.7096 8.45343 84.8544 9.07724C85.0153 9.70102 85.096 10.2529 85.0966 10.7329L85.1051 17.0689C85.1055 17.3729 85.0338 17.597 84.89 17.7412C84.7622 17.8694 84.5463 17.9337 84.2423 17.9341L80.6183 17.9389C80.2983 17.9393 80.0582 17.8757 79.898 17.7479C79.7538 17.6041 79.6815 17.3802 79.6811 17.0762L79.6766 13.7162L75.4286 13.7219L75.4331 17.0819Z" fill="white"/>
</svg>
