<?xml version="1.0" standalone="no"?>
<svg xmlns:xlink="http://www.w3.org/1999/xlink" id="wave" style="transform:rotate(0deg); transition: 0.3s" viewBox="0 0 1440 240" version="1.1" xmlns="http://www.w3.org/2000/svg"><defs><linearGradient id="sw-gradient-0" x1="0" x2="0" y1="1" y2="0"><stop stop-color="rgba(255, 255, 255, 1)" offset="0%"/><stop stop-color="rgba(255, 255, 255, 1)" offset="100%"/></linearGradient></defs><path style="transform:translate(0, 0px); opacity:1" fill="url(#sw-gradient-0)" d="M0,144L80,120C160,96,320,48,480,48C640,48,800,96,960,96C1120,96,1280,48,1440,32C1600,16,1760,32,1920,56C2080,80,2240,112,2400,128C2560,144,2720,144,2880,152C3040,160,3200,176,3360,188C3520,200,3680,208,3840,212C4000,216,4160,216,4320,200C4480,184,4640,152,4800,136C4960,120,5120,120,5280,100C5440,80,5600,40,5760,28C5920,16,6080,32,6240,68C6400,104,6560,160,6720,172C6880,184,7040,152,7200,124C7360,96,7520,72,7680,88C7840,104,8000,160,8160,160C8320,160,8480,104,8640,88C8800,72,8960,96,9120,120C9280,144,9440,168,9600,152C9760,136,9920,80,10080,80C10240,80,10400,136,10560,168C10720,200,10880,208,11040,188C11200,168,11360,120,11440,96L11520,72L11520,240L11440,240C11360,240,11200,240,11040,240C10880,240,10720,240,10560,240C10400,240,10240,240,10080,240C9920,240,9760,240,9600,240C9440,240,9280,240,9120,240C8960,240,8800,240,8640,240C8480,240,8320,240,8160,240C8000,240,7840,240,7680,240C7520,240,7360,240,7200,240C7040,240,6880,240,6720,240C6560,240,6400,240,6240,240C6080,240,5920,240,5760,240C5600,240,5440,240,5280,240C5120,240,4960,240,4800,240C4640,240,4480,240,4320,240C4160,240,4000,240,3840,240C3680,240,3520,240,3360,240C3200,240,3040,240,2880,240C2720,240,2560,240,2400,240C2240,240,2080,240,1920,240C1760,240,1600,240,1440,240C1280,240,1120,240,960,240C800,240,640,240,480,240C320,240,160,240,80,240L0,240Z"/></svg>