<?xml version="1.0" standalone="no"?>
<svg xmlns:xlink="http://www.w3.org/1999/xlink" id="wave" style="transform:rotate(0deg); transition: 0.3s" viewBox="0 0 1440 240" version="1.1" xmlns="http://www.w3.org/2000/svg"><defs><linearGradient id="sw-gradient-0" x1="0" x2="0" y1="1" y2="0"><stop stop-color="rgba(255, 255, 255, 1)" offset="0%"/><stop stop-color="rgba(255, 255, 255, 1)" offset="100%"/></linearGradient></defs><path style="transform:translate(0, 0px); opacity:1" fill="url(#sw-gradient-0)" d="M0,216L80,188C160,160,320,104,480,104C640,104,800,160,960,176C1120,192,1280,168,1440,160C1600,152,1760,160,1920,172C2080,184,2240,200,2400,188C2560,176,2720,136,2880,132C3040,128,3200,160,3360,156C3520,152,3680,112,3840,92C4000,72,4160,72,4320,68C4480,64,4640,56,4800,60C4960,64,5120,80,5280,108C5440,136,5600,176,5760,192C5920,208,6080,200,6240,164C6400,128,6560,64,6720,60C6880,56,7040,112,7200,116C7360,120,7520,72,7680,80C7840,88,8000,152,8160,184C8320,216,8480,216,8640,212C8800,208,8960,200,9120,168C9280,136,9440,80,9600,60C9760,40,9920,56,10080,56C10240,56,10400,40,10560,60C10720,80,10880,136,11040,148C11200,160,11360,128,11440,112L11520,96L11520,240L11440,240C11360,240,11200,240,11040,240C10880,240,10720,240,10560,240C10400,240,10240,240,10080,240C9920,240,9760,240,9600,240C9440,240,9280,240,9120,240C8960,240,8800,240,8640,240C8480,240,8320,240,8160,240C8000,240,7840,240,7680,240C7520,240,7360,240,7200,240C7040,240,6880,240,6720,240C6560,240,6400,240,6240,240C6080,240,5920,240,5760,240C5600,240,5440,240,5280,240C5120,240,4960,240,4800,240C4640,240,4480,240,4320,240C4160,240,4000,240,3840,240C3680,240,3520,240,3360,240C3200,240,3040,240,2880,240C2720,240,2560,240,2400,240C2240,240,2080,240,1920,240C1760,240,1600,240,1440,240C1280,240,1120,240,960,240C800,240,640,240,480,240C320,240,160,240,80,240L0,240Z"/></svg>