<svg width="37" height="21" viewBox="0 0 37 21" fill="none" xmlns="http://www.w3.org/2000/svg">
<mask id="path-1-outside-1_95_755" maskUnits="userSpaceOnUse" x="0" y="0" width="37" height="21" fill="black">
<rect fill="white" width="37" height="21"/>
<path d="M7.384 19.064C7.384 19.3933 7.306 19.636 7.15 19.792C7.01133 19.9307 6.77733 20 6.448 20H2.496C2.16667 20 1.924 19.9307 1.768 19.792C1.62933 19.636 1.56 19.3933 1.56 19.064V16.282C1.56 15.4847 1.62933 14.8867 1.768 14.488C1.90667 14.0893 2.16667 13.6213 2.548 13.084L4.654 10.25L2.548 7.416C2.14933 6.87867 1.88067 6.41067 1.742 6.012C1.62067 5.61333 1.56 5.01533 1.56 4.218V2.216C1.56 1.88667 1.62933 1.65267 1.768 1.514C1.924 1.358 2.16667 1.28 2.496 1.28H6.5C6.82933 1.28 7.06333 1.358 7.202 1.514C7.358 1.65267 7.436 1.88667 7.436 2.216V4.01C7.436 4.18333 7.44467 4.36533 7.462 4.556C7.47933 4.74667 7.54867 4.92867 7.67 5.102L8.814 6.74C8.90067 6.87867 8.98733 6.99133 9.074 7.078C9.178 7.14733 9.29933 7.182 9.438 7.182H9.75C9.88867 7.182 10.0013 7.14733 10.088 7.078C10.1747 6.99133 10.27 6.87867 10.374 6.74L11.544 5.102C11.6653 4.92867 11.7347 4.74667 11.752 4.556C11.7693 4.36533 11.778 4.18333 11.778 4.01V2.216C11.778 1.88667 11.8473 1.65267 11.986 1.514C12.142 1.358 12.3847 1.28 12.714 1.28H16.666C16.9953 1.28 17.2293 1.358 17.368 1.514C17.524 1.65267 17.602 1.88667 17.602 2.216V4.218C17.602 5.01533 17.5327 5.61333 17.394 6.012C17.2553 6.41067 16.9953 6.87867 16.614 7.416L14.508 10.276L16.614 13.084C17.0127 13.6213 17.2727 14.0893 17.394 14.488C17.5327 14.8867 17.602 15.4847 17.602 16.282V19.064C17.602 19.3933 17.524 19.636 17.368 19.792C17.2293 19.9307 16.9953 20 16.666 20H12.714C12.3847 20 12.142 19.9307 11.986 19.792C11.8473 19.636 11.778 19.3933 11.778 19.064V16.49C11.778 16.3167 11.7693 16.1347 11.752 15.944C11.7347 15.7533 11.6653 15.5713 11.544 15.398L10.4 13.76C10.296 13.604 10.2007 13.4913 10.114 13.422C10.0273 13.3527 9.91467 13.318 9.776 13.318H9.412C9.27333 13.318 9.16067 13.3527 9.074 13.422C8.98733 13.4913 8.892 13.604 8.788 13.76L7.618 15.398C7.49667 15.5713 7.42733 15.7533 7.41 15.944C7.39267 16.1347 7.384 16.3167 7.384 16.49V19.064ZM25.9299 20H21.8999C21.5706 20 21.3279 19.9307 21.1719 19.792C21.0333 19.636 20.9639 19.3933 20.9639 19.064V2.216C20.9639 1.88667 21.0333 1.65267 21.1719 1.514C21.3279 1.358 21.5706 1.28 21.8999 1.28H29.8559C32.2133 1.28 33.8253 1.748 34.6919 2.684C35.5586 3.62 35.9919 4.842 35.9919 6.35V9.678C35.9919 11.186 35.5586 12.408 34.6919 13.344C33.8253 14.28 32.2133 14.748 29.8559 14.748H26.8659V19.064C26.8659 19.3933 26.7879 19.636 26.6319 19.792C26.4933 19.9307 26.2593 20 25.9299 20ZM26.8139 6.142V10.068H29.1539C29.6566 10.068 29.9859 9.938 30.1419 9.678C30.2979 9.418 30.3759 9.12333 30.3759 8.794V7.416C30.3759 7.08667 30.2979 6.792 30.1419 6.532C29.9859 6.272 29.6566 6.142 29.1539 6.142H26.8139Z"/>
</mask>
<path d="M7.384 19.064C7.384 19.3933 7.306 19.636 7.15 19.792C7.01133 19.9307 6.77733 20 6.448 20H2.496C2.16667 20 1.924 19.9307 1.768 19.792C1.62933 19.636 1.56 19.3933 1.56 19.064V16.282C1.56 15.4847 1.62933 14.8867 1.768 14.488C1.90667 14.0893 2.16667 13.6213 2.548 13.084L4.654 10.25L2.548 7.416C2.14933 6.87867 1.88067 6.41067 1.742 6.012C1.62067 5.61333 1.56 5.01533 1.56 4.218V2.216C1.56 1.88667 1.62933 1.65267 1.768 1.514C1.924 1.358 2.16667 1.28 2.496 1.28H6.5C6.82933 1.28 7.06333 1.358 7.202 1.514C7.358 1.65267 7.436 1.88667 7.436 2.216V4.01C7.436 4.18333 7.44467 4.36533 7.462 4.556C7.47933 4.74667 7.54867 4.92867 7.67 5.102L8.814 6.74C8.90067 6.87867 8.98733 6.99133 9.074 7.078C9.178 7.14733 9.29933 7.182 9.438 7.182H9.75C9.88867 7.182 10.0013 7.14733 10.088 7.078C10.1747 6.99133 10.27 6.87867 10.374 6.74L11.544 5.102C11.6653 4.92867 11.7347 4.74667 11.752 4.556C11.7693 4.36533 11.778 4.18333 11.778 4.01V2.216C11.778 1.88667 11.8473 1.65267 11.986 1.514C12.142 1.358 12.3847 1.28 12.714 1.28H16.666C16.9953 1.28 17.2293 1.358 17.368 1.514C17.524 1.65267 17.602 1.88667 17.602 2.216V4.218C17.602 5.01533 17.5327 5.61333 17.394 6.012C17.2553 6.41067 16.9953 6.87867 16.614 7.416L14.508 10.276L16.614 13.084C17.0127 13.6213 17.2727 14.0893 17.394 14.488C17.5327 14.8867 17.602 15.4847 17.602 16.282V19.064C17.602 19.3933 17.524 19.636 17.368 19.792C17.2293 19.9307 16.9953 20 16.666 20H12.714C12.3847 20 12.142 19.9307 11.986 19.792C11.8473 19.636 11.778 19.3933 11.778 19.064V16.49C11.778 16.3167 11.7693 16.1347 11.752 15.944C11.7347 15.7533 11.6653 15.5713 11.544 15.398L10.4 13.76C10.296 13.604 10.2007 13.4913 10.114 13.422C10.0273 13.3527 9.91467 13.318 9.776 13.318H9.412C9.27333 13.318 9.16067 13.3527 9.074 13.422C8.98733 13.4913 8.892 13.604 8.788 13.76L7.618 15.398C7.49667 15.5713 7.42733 15.7533 7.41 15.944C7.39267 16.1347 7.384 16.3167 7.384 16.49V19.064ZM25.9299 20H21.8999C21.5706 20 21.3279 19.9307 21.1719 19.792C21.0333 19.636 20.9639 19.3933 20.9639 19.064V2.216C20.9639 1.88667 21.0333 1.65267 21.1719 1.514C21.3279 1.358 21.5706 1.28 21.8999 1.28H29.8559C32.2133 1.28 33.8253 1.748 34.6919 2.684C35.5586 3.62 35.9919 4.842 35.9919 6.35V9.678C35.9919 11.186 35.5586 12.408 34.6919 13.344C33.8253 14.28 32.2133 14.748 29.8559 14.748H26.8659V19.064C26.8659 19.3933 26.7879 19.636 26.6319 19.792C26.4933 19.9307 26.2593 20 25.9299 20ZM26.8139 6.142V10.068H29.1539C29.6566 10.068 29.9859 9.938 30.1419 9.678C30.2979 9.418 30.3759 9.12333 30.3759 8.794V7.416C30.3759 7.08667 30.2979 6.792 30.1419 6.532C29.9859 6.272 29.6566 6.142 29.1539 6.142H26.8139Z" fill="#FFC93E"/>
<path d="M7.15 19.792L6.44289 19.0849L6.44289 19.0849L7.15 19.792ZM1.768 19.792L1.02059 20.4564L1.05967 20.5003L1.10364 20.5394L1.768 19.792ZM2.548 13.084L1.74536 12.4875L1.73883 12.4963L1.73249 12.5053L2.548 13.084ZM4.654 10.25L5.45664 10.8465L5.89988 10.25L5.45664 9.65354L4.654 10.25ZM2.548 7.416L1.7449 8.01185L1.74536 8.01246L2.548 7.416ZM1.742 6.012L0.785326 6.30316L0.791048 6.32196L0.797503 6.34052L1.742 6.012ZM1.768 1.514L1.06089 0.806892L1.06089 0.806893L1.768 1.514ZM7.202 1.514L6.45459 2.17836L6.49367 2.22233L6.53764 2.26141L7.202 1.514ZM7.462 4.556L6.46611 4.64653V4.64654L7.462 4.556ZM7.67 5.102L8.48984 4.52941L8.48923 4.52854L7.67 5.102ZM8.814 6.74L9.662 6.21L9.64847 6.18835L9.63384 6.16741L8.814 6.74ZM9.074 7.078L8.36689 7.7851L8.43691 7.85512L8.5193 7.91005L9.074 7.078ZM10.088 7.078L10.7127 7.85887L10.7559 7.82427L10.7951 7.7851L10.088 7.078ZM10.374 6.74L11.174 7.34L11.181 7.3307L11.1877 7.32124L10.374 6.74ZM11.544 5.102L12.3578 5.68326L12.3632 5.67546L11.544 5.102ZM11.752 4.556L10.7561 4.46546L11.752 4.556ZM11.986 1.514L12.6931 2.22111L11.986 1.514ZM17.368 1.514L16.6206 2.17836L16.6597 2.22233L16.7036 2.26141L17.368 1.514ZM16.614 7.416L17.4192 8.00895L17.4244 8.00189L17.4295 7.99475L16.614 7.416ZM14.508 10.276L13.7028 9.68305L13.2621 10.2815L13.708 10.876L14.508 10.276ZM16.614 13.084L17.4171 12.4881L17.414 12.484L16.614 13.084ZM17.394 14.488L16.4373 14.7792L16.443 14.798L16.4495 14.8165L17.394 14.488ZM17.368 19.792L18.0751 20.4991L17.368 19.792ZM11.986 19.792L11.2386 20.4564L11.2777 20.5003L11.3216 20.5394L11.986 19.792ZM11.752 15.944L10.7561 16.0345L11.752 15.944ZM11.544 15.398L10.7242 15.9706L10.7248 15.9715L11.544 15.398ZM10.4 13.76L9.56795 14.3147L9.57396 14.3237L9.58016 14.3326L10.4 13.76ZM10.114 13.422L10.7387 12.6411L10.7387 12.6411L10.114 13.422ZM9.074 13.422L8.44931 12.6411L8.4493 12.6411L9.074 13.422ZM8.788 13.76L9.60173 14.3412L9.61111 14.3281L9.62005 14.3147L8.788 13.76ZM7.618 15.398L6.80423 14.8167L6.79877 14.8245L7.618 15.398ZM7.41 15.944L8.40589 16.0345L8.40589 16.0345L7.41 15.944ZM6.384 19.064C6.384 19.1073 6.38141 19.1386 6.37855 19.1596C6.37568 19.1806 6.37289 19.1888 6.37347 19.187C6.37414 19.1849 6.37852 19.172 6.38996 19.1525C6.40168 19.1326 6.419 19.1088 6.44289 19.0849L7.85711 20.4991C8.27571 20.0805 8.384 19.5292 8.384 19.064H6.384ZM6.44289 19.0849C6.51683 19.011 6.5821 18.9905 6.58641 18.9892C6.58858 18.9886 6.57918 18.9915 6.55497 18.9945C6.53089 18.9975 6.49581 19 6.448 19V21C6.87275 21 7.43779 20.9184 7.85711 20.4991L6.44289 19.0849ZM6.448 19H2.496V21H6.448V19ZM2.496 19C2.44832 19 2.41198 18.9975 2.38558 18.9943C2.35912 18.9911 2.34533 18.9875 2.34172 18.9865C2.33497 18.9845 2.37718 18.9955 2.43236 19.0446L1.10364 20.5394C1.52309 20.9123 2.05644 21 2.496 21V19ZM2.51541 19.1276C2.56446 19.1828 2.57545 19.225 2.57352 19.2183C2.57249 19.2147 2.56894 19.2009 2.56573 19.1744C2.56253 19.148 2.56 19.1117 2.56 19.064H0.56C0.56 19.5036 0.647739 20.0369 1.02059 20.4564L2.51541 19.1276ZM2.56 19.064V16.282H0.56V19.064H2.56ZM2.56 16.282C2.56 15.5155 2.63009 15.0534 2.7125 14.8165L0.823503 14.1595C0.628577 14.7199 0.56 15.4538 0.56 16.282H2.56ZM2.7125 14.8165C2.80792 14.5422 3.00983 14.1611 3.36351 13.6627L1.73249 12.5053C1.3235 13.0816 1.00542 13.6365 0.823503 14.1595L2.7125 14.8165ZM3.35064 13.6805L5.45664 10.8465L3.85136 9.65354L1.74536 12.4875L3.35064 13.6805ZM5.45664 9.65354L3.35064 6.81954L1.74536 8.01246L3.85136 10.8465L5.45664 9.65354ZM3.3511 6.82015C2.98189 6.32252 2.77826 5.94729 2.6865 5.68348L0.797503 6.34052C0.983077 6.87404 1.31678 7.43481 1.7449 8.01185L3.3511 6.82015ZM2.69867 5.72084C2.62149 5.46724 2.56 4.98933 2.56 4.218H0.56C0.56 5.04133 0.619842 5.75943 0.785326 6.30316L2.69867 5.72084ZM2.56 4.218V2.216H0.56V4.218H2.56ZM2.56 2.216C2.56 2.16819 2.56255 2.13311 2.56551 2.10903C2.56849 2.08482 2.57144 2.07542 2.5708 2.07759C2.56952 2.0819 2.54904 2.14717 2.47511 2.22111L1.06089 0.806893C0.641574 1.22621 0.56 1.79125 0.56 2.216H2.56ZM2.47511 2.22111C2.45121 2.245 2.42742 2.26232 2.40745 2.27404C2.38795 2.28548 2.3751 2.28986 2.37301 2.29053C2.37121 2.29111 2.37939 2.28831 2.40036 2.28545C2.42136 2.28259 2.45269 2.28 2.496 2.28V0.279999C2.03085 0.279999 1.47949 0.388292 1.06089 0.806892L2.47511 2.22111ZM2.496 2.28H6.5V0.279999H2.496V2.28ZM6.5 2.28C6.54345 2.28 6.57344 2.28261 6.59197 2.28517C6.61054 2.28775 6.61408 2.28979 6.60627 2.28718C6.5981 2.28446 6.57687 2.27642 6.54836 2.25851C6.51913 2.24016 6.48612 2.21384 6.45459 2.17836L7.94941 0.849636C7.53459 0.382965 6.95221 0.279999 6.5 0.279999V2.28ZM6.53764 2.26141C6.50216 2.22987 6.47584 2.19687 6.45749 2.16764C6.43958 2.13912 6.43154 2.1179 6.42882 2.10973C6.42621 2.10192 6.42825 2.10546 6.43083 2.12403C6.43339 2.14256 6.436 2.17255 6.436 2.216H8.436C8.436 1.76379 8.33303 1.18141 7.86636 0.766591L6.53764 2.26141ZM6.436 2.216V4.01H8.436V2.216H6.436ZM6.436 4.01C6.436 4.21649 6.44632 4.42884 6.46611 4.64653L8.45789 4.46546C8.44302 4.30183 8.436 4.15018 8.436 4.01H6.436ZM6.46611 4.64654C6.50084 5.02862 6.64023 5.3747 6.85077 5.67546L8.48923 4.52854C8.47176 4.50357 8.46443 4.48723 8.46149 4.4795C8.45874 4.47229 8.45816 4.46835 8.45789 4.46546L6.46611 4.64654ZM6.85016 5.67459L7.99416 7.31259L9.63384 6.16741L8.48984 4.52941L6.85016 5.67459ZM7.966 7.27C8.08035 7.45296 8.21235 7.63056 8.36689 7.7851L9.78111 6.3709C9.76232 6.3521 9.72098 6.30437 9.662 6.21L7.966 7.27ZM8.5193 7.91005C8.8053 8.10071 9.12435 8.182 9.438 8.182V6.182C9.45249 6.182 9.48071 6.1839 9.51772 6.19448C9.55555 6.20528 9.5938 6.22268 9.6287 6.24595L8.5193 7.91005ZM9.438 8.182H9.75V6.182H9.438V8.182ZM9.75 8.182C10.0578 8.182 10.4082 8.10245 10.7127 7.85887L9.46331 6.29713C9.59446 6.19221 9.71955 6.182 9.75 6.182V8.182ZM10.7951 7.7851C10.9258 7.65444 11.0522 7.50236 11.174 7.34L9.574 6.14C9.48777 6.25497 9.42356 6.32822 9.38089 6.3709L10.7951 7.7851ZM11.1877 7.32124L12.3577 5.68324L10.7303 4.52076L9.56027 6.15876L11.1877 7.32124ZM12.3632 5.67546C12.5738 5.3747 12.7132 5.02862 12.7479 4.64653L10.7561 4.46546C10.7558 4.46835 10.7553 4.47229 10.7525 4.47951C10.7496 4.48724 10.7422 4.50357 10.7248 4.52854L12.3632 5.67546ZM12.7479 4.64653C12.7677 4.42884 12.778 4.21649 12.778 4.01H10.778C10.778 4.15018 10.771 4.30183 10.7561 4.46546L12.7479 4.64653ZM12.778 4.01V2.216H10.778V4.01H12.778ZM12.778 2.216C12.778 2.16819 12.7805 2.13311 12.7835 2.10903C12.7865 2.08482 12.7894 2.07542 12.7888 2.07759C12.7875 2.0819 12.767 2.14717 12.6931 2.22111L11.2789 0.806892C10.8596 1.22621 10.778 1.79125 10.778 2.216H12.778ZM12.6931 2.22111C12.6692 2.245 12.6454 2.26232 12.6255 2.27404C12.606 2.28548 12.5931 2.28986 12.591 2.29053C12.5892 2.29111 12.5974 2.28831 12.6184 2.28545C12.6394 2.28259 12.6707 2.28 12.714 2.28V0.279999C12.2489 0.279999 11.6975 0.388292 11.2789 0.806892L12.6931 2.22111ZM12.714 2.28H16.666V0.279999H12.714V2.28ZM16.666 2.28C16.7094 2.28 16.7394 2.28261 16.758 2.28517C16.7765 2.28774 16.7801 2.28979 16.7723 2.28718C16.7641 2.28446 16.7429 2.27642 16.7144 2.25851C16.6851 2.24016 16.6521 2.21384 16.6206 2.17836L18.1154 0.849635C17.7006 0.382965 17.1182 0.279999 16.666 0.279999V2.28ZM16.7036 2.26141C16.6682 2.22987 16.6418 2.19687 16.6235 2.16764C16.6056 2.13912 16.5975 2.1179 16.5948 2.10973C16.5922 2.10192 16.5943 2.10546 16.5968 2.12403C16.5994 2.14256 16.602 2.17255 16.602 2.216H18.602C18.602 1.76379 18.499 1.18141 18.0324 0.766591L16.7036 2.26141ZM16.602 2.216V4.218H18.602V2.216H16.602ZM16.602 4.218C16.602 4.98449 16.5319 5.44656 16.4495 5.68348L18.3385 6.34052C18.5334 5.78011 18.602 5.04617 18.602 4.218H16.602ZM16.4495 5.68348C16.3541 5.95781 16.1522 6.3389 15.7985 6.83725L17.4295 7.99475C17.8385 7.41844 18.1566 6.86352 18.3385 6.34052L16.4495 5.68348ZM15.8088 6.82305L13.7028 9.68305L15.3132 10.8689L17.4192 8.00895L15.8088 6.82305ZM13.708 10.876L15.814 13.684L17.414 12.484L15.308 9.676L13.708 10.876ZM15.8109 13.6798C16.1775 14.1739 16.3634 14.5361 16.4373 14.7792L18.3507 14.1968C18.182 13.6426 17.8479 13.0687 17.4171 12.4882L15.8109 13.6798ZM16.4495 14.8165C16.5319 15.0534 16.602 15.5155 16.602 16.282H18.602C18.602 15.4538 18.5334 14.7199 18.3385 14.1595L16.4495 14.8165ZM16.602 16.282V19.064H18.602V16.282H16.602ZM16.602 19.064C16.602 19.1073 16.5994 19.1386 16.5965 19.1596C16.5937 19.1806 16.5909 19.1888 16.5915 19.187C16.5921 19.1849 16.5965 19.172 16.608 19.1525C16.6197 19.1326 16.637 19.1088 16.6609 19.0849L18.0751 20.4991C18.4937 20.0805 18.602 19.5292 18.602 19.064H16.602ZM16.6609 19.0849C16.7348 19.011 16.8001 18.9905 16.8044 18.9892C16.8066 18.9886 16.7972 18.9915 16.773 18.9945C16.7489 18.9975 16.7138 19 16.666 19V21C17.0907 21 17.6558 20.9184 18.0751 20.4991L16.6609 19.0849ZM16.666 19H12.714V21H16.666V19ZM12.714 19C12.6663 19 12.63 18.9975 12.6036 18.9943C12.5771 18.9911 12.5633 18.9875 12.5597 18.9865C12.553 18.9845 12.5952 18.9955 12.6504 19.0446L11.3216 20.5394C11.7411 20.9123 12.2744 21 12.714 21V19ZM12.7334 19.1276C12.7825 19.1828 12.7935 19.225 12.7915 19.2183C12.7905 19.2147 12.7869 19.2009 12.7837 19.1744C12.7805 19.148 12.778 19.1117 12.778 19.064H10.778C10.778 19.5036 10.8657 20.0369 11.2386 20.4564L12.7334 19.1276ZM12.778 19.064V16.49H10.778V19.064H12.778ZM12.778 16.49C12.778 16.2835 12.7677 16.0712 12.7479 15.8535L10.7561 16.0345C10.771 16.1982 10.778 16.3498 10.778 16.49H12.778ZM12.7479 15.8535C12.7132 15.4714 12.5738 15.1253 12.3632 14.8245L10.7248 15.9715C10.7422 15.9964 10.7496 16.0128 10.7525 16.0205C10.7553 16.0277 10.7558 16.0316 10.7561 16.0345L12.7479 15.8535ZM12.3638 14.8254L11.2198 13.1874L9.58016 14.3326L10.7242 15.9706L12.3638 14.8254ZM11.2321 13.2053C11.1046 13.0141 10.9422 12.804 10.7387 12.6411L9.4893 14.2029C9.46878 14.1864 9.46846 14.1824 9.48711 14.2044C9.50465 14.2252 9.53174 14.2604 9.56795 14.3147L11.2321 13.2053ZM10.7387 12.6411C10.4342 12.3975 10.0838 12.318 9.776 12.318V14.318C9.74555 14.318 9.62046 14.3078 9.48931 14.2029L10.7387 12.6411ZM9.776 12.318H9.412V14.318H9.776V12.318ZM9.412 12.318C9.10422 12.318 8.75379 12.3975 8.44931 12.6411L9.69869 14.2029C9.56754 14.3078 9.44245 14.318 9.412 14.318V12.318ZM8.4493 12.6411C8.24577 12.804 8.08345 13.0141 7.95595 13.2053L9.62005 14.3147C9.65627 14.2604 9.68335 14.2252 9.70089 14.2044C9.71954 14.1824 9.71922 14.1864 9.6987 14.2029L8.4493 12.6411ZM7.97427 13.1788L6.80427 14.8168L8.43173 15.9792L9.60173 14.3412L7.97427 13.1788ZM6.79877 14.8245C6.58823 15.1253 6.44884 15.4714 6.41411 15.8535L8.40589 16.0345C8.40616 16.0316 8.40674 16.0277 8.40949 16.0205C8.41243 16.0128 8.41975 15.9964 8.43723 15.9715L6.79877 14.8245ZM6.41411 15.8535C6.39432 16.0712 6.384 16.2835 6.384 16.49H8.384C8.384 16.3498 8.39102 16.1982 8.40589 16.0345L6.41411 15.8535ZM6.384 16.49V19.064H8.384V16.49H6.384ZM21.1719 19.792L20.4245 20.4564L20.4636 20.5003L20.5076 20.5394L21.1719 19.792ZM21.1719 1.514L20.4648 0.806893V0.806893L21.1719 1.514ZM34.6919 2.684L33.9582 3.36341V3.36341L34.6919 2.684ZM34.6919 13.344L33.9582 12.6646V12.6646L34.6919 13.344ZM26.8659 14.748V13.748H25.8659V14.748H26.8659ZM26.6319 19.792L25.9248 19.0849L25.9248 19.0849L26.6319 19.792ZM26.8139 6.142V5.142H25.8139V6.142H26.8139ZM26.8139 10.068H25.8139V11.068H26.8139V10.068ZM30.1419 9.678L30.9994 10.1925L30.9994 10.1925L30.1419 9.678ZM30.1419 6.532L29.2844 7.04649V7.0465L30.1419 6.532ZM25.9299 19H21.8999V21H25.9299V19ZM21.8999 19C21.8522 19 21.8159 18.9975 21.7895 18.9943C21.763 18.9911 21.7493 18.9875 21.7456 18.9865C21.7389 18.9845 21.7811 18.9955 21.8363 19.0446L20.5076 20.5394C20.927 20.9123 21.4604 21 21.8999 21V19ZM21.9193 19.1276C21.9684 19.1828 21.9794 19.225 21.9774 19.2183C21.9764 19.2147 21.9729 19.2009 21.9697 19.1744C21.9665 19.148 21.9639 19.1117 21.9639 19.064H19.9639C19.9639 19.5036 20.0517 20.0369 20.4245 20.4564L21.9193 19.1276ZM21.9639 19.064V2.216H19.9639V19.064H21.9639ZM21.9639 2.216C21.9639 2.16819 21.9665 2.13311 21.9694 2.10903C21.9724 2.08482 21.9754 2.07542 21.9747 2.07759C21.9734 2.0819 21.953 2.14717 21.879 2.22111L20.4648 0.806893C20.0455 1.22621 19.9639 1.79125 19.9639 2.216H21.9639ZM21.879 2.22111C21.8551 2.245 21.8313 2.26232 21.8114 2.27404C21.7919 2.28548 21.779 2.28986 21.7769 2.29053C21.7751 2.29111 21.7833 2.28831 21.8043 2.28545C21.8253 2.28259 21.8566 2.28 21.8999 2.28V0.279999C21.4348 0.279999 20.8834 0.388292 20.4648 0.806893L21.879 2.22111ZM21.8999 2.28H29.8559V0.279999H21.8999V2.28ZM29.8559 2.28C32.1502 2.28 33.3894 2.74912 33.9582 3.36341L35.4257 2.00459C34.2611 0.746879 32.2763 0.279999 29.8559 0.279999V2.28ZM33.9582 3.36341C34.6232 4.08164 34.9919 5.04514 34.9919 6.35H36.9919C36.9919 4.63885 36.494 3.15836 35.4257 2.00459L33.9582 3.36341ZM34.9919 6.35V9.678H36.9919V6.35H34.9919ZM34.9919 9.678C34.9919 10.9829 34.6232 11.9464 33.9582 12.6646L35.4257 14.0234C36.494 12.8696 36.9919 11.3891 36.9919 9.678H34.9919ZM33.9582 12.6646C33.3894 13.2789 32.1502 13.748 29.8559 13.748V15.748C32.2763 15.748 34.2611 15.2811 35.4257 14.0234L33.9582 12.6646ZM29.8559 13.748H26.8659V15.748H29.8559V13.748ZM25.8659 14.748V19.064H27.8659V14.748H25.8659ZM25.8659 19.064C25.8659 19.1073 25.8633 19.1386 25.8605 19.1596C25.8576 19.1806 25.8548 19.1888 25.8554 19.187C25.8561 19.1849 25.8604 19.172 25.8719 19.1525C25.8836 19.1326 25.9009 19.1088 25.9248 19.0849L27.339 20.4991C27.7576 20.0805 27.8659 19.5292 27.8659 19.064H25.8659ZM25.9248 19.0849C25.9987 19.011 26.064 18.9905 26.0683 18.9892C26.0705 18.9886 26.0611 18.9915 26.0369 18.9945C26.0128 18.9975 25.9777 19 25.9299 19V21C26.3547 21 26.9197 20.9184 27.339 20.4991L25.9248 19.0849ZM25.8139 6.142V10.068H27.8139V6.142H25.8139ZM26.8139 11.068H29.1539V9.068H26.8139V11.068ZM29.1539 11.068C29.769 11.068 30.5668 10.9136 30.9994 10.1925L29.2844 9.1635C29.3078 9.12449 29.3371 9.09235 29.366 9.06911C29.3936 9.04694 29.4122 9.03977 29.4108 9.04034C29.4084 9.04125 29.3885 9.04867 29.344 9.05561C29.2998 9.06253 29.2375 9.068 29.1539 9.068V11.068ZM30.9994 10.1925C31.2566 9.76379 31.3759 9.28842 31.3759 8.794H29.3759C29.3759 8.95824 29.3392 9.07221 29.2844 9.1635L30.9994 10.1925ZM31.3759 8.794V7.416H29.3759V8.794H31.3759ZM31.3759 7.416C31.3759 6.92157 31.2566 6.44621 30.9994 6.0175L29.2844 7.0465C29.3392 7.13779 29.3759 7.25176 29.3759 7.416H31.3759ZM30.9994 6.0175C30.5668 5.29642 29.769 5.142 29.1539 5.142V7.142C29.2375 7.142 29.2998 7.14747 29.344 7.15439C29.3885 7.16132 29.4084 7.16874 29.4108 7.16965C29.4122 7.17023 29.3936 7.16306 29.366 7.14088C29.3371 7.11765 29.3078 7.0855 29.2844 7.04649L30.9994 6.0175ZM29.1539 5.142H26.8139V7.142H29.1539V5.142Z" fill="#987315" mask="url(#path-1-outside-1_95_755)"/>
</svg>
